<?xml version="1.0" encoding="UTF-8"?>
<svg version="1.1" xmlns="http://www.w3.org/2000/svg" width="100" height="100">
<path d="M0 0 C33 0 66 0 100 0 C100 33 100 66 100 100 C67 100 34 100 0 100 C0 67 0 34 0 0 Z " fill="#FDFCFC" transform="translate(0,0)"/>
<path d="M0 0 C2.13743704 1.13158432 3.77985697 2.26909143 5.59765625 3.875 C7.62264815 5.42890162 7.62264815 5.42890162 10.1328125 5.04296875 C11.01710938 4.82253906 11.90140625 4.60210938 12.8125 4.375 C18.03171393 3.25559755 23.36465253 2.26394624 28.6875 3.1875 C30.46875 4.70703125 30.46875 4.70703125 31.6875 6.1875 C31.1925 6.5175 30.6975 6.8475 30.1875 7.1875 C27.80146161 10.36888451 28.49829009 13.27716187 28.6875 17.1875 C28.6875 17.5175 28.6875 17.8475 28.6875 18.1875 C29.3475 18.5175 30.0075 18.8475 30.6875 19.1875 C29.6975 20.6725 29.6975 20.6725 28.6875 22.1875 C29.3475 22.5175 30.0075 22.8475 30.6875 23.1875 C30.60003716 24.62611294 30.49184652 26.06347508 30.375 27.5 C30.31699219 28.30050781 30.25898437 29.10101563 30.19921875 29.92578125 C29.56436373 32.7317435 29.0779421 33.57591096 26.6875 35.1875 C24.26105737 35.73688324 21.95866557 36.12262317 19.5 36.4375 C10.30137134 37.7841902 1.2562851 39.73071098 -7.8125 41.75 C-8.50354828 41.90384155 -9.19459656 42.05768311 -9.90658569 42.21618652 C-11.26644304 42.51908024 -12.62626631 42.822127 -13.98605347 43.12533569 C-15.93003146 43.55779293 -17.87479891 43.9866965 -19.81958008 44.41552734 C-21.92307679 44.88042261 -24.02503726 45.35246955 -26.1237793 45.83837891 C-32.16656383 47.17355786 -37.94506693 47.49089035 -44.125 47.4375 C-45.49688477 47.44910156 -45.49688477 47.44910156 -46.89648438 47.4609375 C-51.46053293 47.44766027 -55.17869581 47.37139655 -59.3125 45.1875 C-58.9825 44.5275 -58.6525 43.8675 -58.3125 43.1875 C-59.116875 42.960625 -59.92125 42.73375 -60.75 42.5 C-63.3125 41.1875 -63.3125 41.1875 -64.125 38.96875 C-64.36252317 35.4454896 -63.43030016 33.52353446 -61.875 30.375 C-61.40191406 29.39917969 -60.92882813 28.42335938 -60.44140625 27.41796875 C-60.06886719 26.68191406 -59.69632813 25.94585937 -59.3125 25.1875 C-60.9625 24.8575 -62.6125 24.5275 -64.3125 24.1875 C-62.3125 22.1875 -62.3125 22.1875 -59.3125 21.1875 C-58.4875 20.176875 -57.6625 19.16625 -56.8125 18.125 C-55.9875 17.155625 -55.1625 16.18625 -54.3125 15.1875 C-53.3225 15.1875 -52.3325 15.1875 -51.3125 15.1875 C-49.40969097 13.97695557 -49.40969097 13.97695557 -47.5 12.375 C-44.25013239 9.83604093 -41.06460042 7.93266299 -37.3125 6.1875 C-36.3225 5.5275 -35.3325 4.8675 -34.3125 4.1875 C-34.9725 6.1675 -35.6325 8.1475 -36.3125 10.1875 C-34.9925 10.1875 -33.6725 10.1875 -32.3125 10.1875 C-32.3125 8.5375 -32.3125 6.8875 -32.3125 5.1875 C-30.6625 4.8575 -29.0125 4.5275 -27.3125 4.1875 C-26.8175 5.6725 -26.8175 5.6725 -26.3125 7.1875 C-25.735 6.836875 -25.1575 6.48625 -24.5625 6.125 C-21.95448224 5.03832593 -20.91832371 5.25684867 -18.3125 6.1875 C-18.6425 8.1675 -18.9725 10.1475 -19.3125 12.1875 C-18.3225 12.1875 -17.3325 12.1875 -16.3125 12.1875 C-16.3125 13.1775 -16.3125 14.1675 -16.3125 15.1875 C-15.3225 15.5175 -14.3325 15.8475 -13.3125 16.1875 C-12.8175 17.6725 -12.8175 17.6725 -12.3125 19.1875 C-10.9925 19.1875 -9.6725 19.1875 -8.3125 19.1875 C-7.12670987 18.17320845 -7.12670987 18.17320845 -6.8125 16.1875 C-6.3125 14.1875 -6.3125 14.1875 -5.3125 13.1875 C-7.28996603 12.45669734 -9.29322489 11.79328253 -11.3125 11.1875 C-11.9725 11.5175 -12.6325 11.8475 -13.3125 12.1875 C-13.745625 11.259375 -14.17875 10.33125 -14.625 9.375 C-16.94157282 4.81787476 -16.94157282 4.81787476 -21.28125 2.56640625 C-23.27945721 2.05630054 -25.29550528 1.61735133 -27.3125 1.1875 C-21.67173916 -4.45326084 -6.95146113 -3.05072498 0 0 Z " fill="#181B38" transform="translate(67.3125,24.8125)"/>
<path d="M0 0 C0 3 0 3 -1 6 C0.32 6 1.64 6 3 6 C3 4.35 3 2.7 3 1 C4.65 0.67 6.3 0.34 8 0 C8.495 1.485 8.495 1.485 9 3 C9.86625 2.4740625 9.86625 2.4740625 10.75 1.9375 C13.35801776 0.85082593 14.39417629 1.06934867 17 2 C16.67 3.98 16.34 5.96 16 8 C16.99 8 17.98 8 19 8 C19 8.99 19 9.98 19 11 C19.99 11.33 20.98 11.66 22 12 C22.495 13.485 22.495 13.485 23 15 C24.32 15 25.64 15 27 15 C28.18579013 13.98570845 28.18579013 13.98570845 28.5 12 C29 10 29 10 30 9 C28.02253397 8.26919734 26.01927511 7.60578253 24 7 C23.34 7.33 22.68 7.66 22 8 C22.66 6.02 23.32 4.04 24 2 C24.495 3.485 24.495 3.485 25 5 C26.32 5 27.64 5 29 5 C29 5.66 29 6.32 29 7 C29.74765625 6.69964844 30.4953125 6.39929687 31.265625 6.08984375 C32.25046875 5.70957031 33.2353125 5.32929687 34.25 4.9375 C35.22453125 4.55464844 36.1990625 4.17179687 37.203125 3.77734375 C40.04007395 2.98886213 41.29409552 2.97562188 44 4 C42.02 4.99 40.04 5.98 38 7 C38 7.99 38 8.98 38 10 C38 11.66666667 38 13.33333333 38 15 C38.66 15 39.32 15 40 15 C39.505 14.01 39.505 14.01 39 13 C38.960008 11.00039988 38.95653201 8.99952758 39 7 C42.08809695 5.23537317 43.23312136 5 47 5 C47 7.31 47 9.62 47 12 C45.68 12.66 44.36 13.32 43 14 C43.495 16.475 43.495 16.475 44 19 C42.02 19.33 40.04 19.66 38 20 C38.495 20.99 38.495 20.99 39 22 C40.99954746 22.04254356 43.00041636 22.04080783 45 22 C45.495 21.505 45.495 21.505 46 21 C47.68608966 20.92794489 49.37500659 20.91613932 51.0625 20.9375 C51.98160156 20.94652344 52.90070313 20.95554687 53.84765625 20.96484375 C54.55792969 20.97644531 55.26820312 20.98804687 56 21 C55.67 23.31 55.34 25.62 55 28 C53.515 27.505 53.515 27.505 52 27 C52.33 25.68 52.66 24.36 53 23 C52.34 23 51.68 23 51 23 C51 24.65 51 26.3 51 28 C49.515 28.495 49.515 28.495 48 29 C48.33 27.02 48.66 25.04 49 23 C48.34 23 47.68 23 47 23 C46.67 24.98 46.34 26.96 46 29 C45.34 29 44.68 29 44 29 C44 28.01 44 27.02 44 26 C43.01 27.485 43.01 27.485 42 29 C39.8359375 29.51171875 39.8359375 29.51171875 37.375 29.6875 C36.55773437 29.75324219 35.74046875 29.81898437 34.8984375 29.88671875 C33.95871094 29.94279297 33.95871094 29.94279297 33 30 C33.33 28.02 33.66 26.04 34 24 C33.34 24 32.68 24 32 24 C31.67 25.98 31.34 27.96 31 30 C30.34 30 29.68 30 29 30 C28.505 28.515 28.505 28.515 28 27 C27.67 28.32 27.34 29.64 27 31 C20.84765625 31.09765625 20.84765625 31.09765625 19 31 C18.67 30.67 18.34 30.34 18 30 C17.67 30.66 17.34 31.32 17 32 C15.02 32 13.04 32 11 32 C11 31.34 11 30.68 11 30 C8.52733235 30.34444881 8.52733235 30.34444881 6 31 C5.67 31.66 5.34 32.32 5 33 C2.28553021 33.31241455 -0.33909361 33.51336592 -3.0625 33.625 C-3.82111328 33.66367187 -4.57972656 33.70234375 -5.36132812 33.7421875 C-7.24047195 33.83673562 -9.12020336 33.91946756 -11 34 C-8.20907278 29.74204694 -5.30601088 25.8570127 -2 22 C-6.95 22.33 -11.9 22.66 -17 23 C-17.99 25.64 -18.98 28.28 -20 31 C-18.35 31 -16.7 31 -15 31 C-15 30.34 -15 29.68 -15 29 C-15.66 29 -16.32 29 -17 29 C-16.67 27.68 -16.34 26.36 -16 25 C-13.69 25 -11.38 25 -9 25 C-9.47550561 26.48034764 -9.95551216 27.95925021 -10.4375 29.4375 C-10.70433594 30.26121094 -10.97117187 31.08492187 -11.24609375 31.93359375 C-12 34 -12 34 -13 35 C-15.18639453 35.07258946 -17.37500389 35.08373783 -19.5625 35.0625 C-21.35880859 35.04896484 -21.35880859 35.04896484 -23.19140625 35.03515625 C-24.11824219 35.02355469 -25.04507812 35.01195312 -26 35 C-25.53118166 29.37417987 -24.15551956 23.15551956 -20 19 C-11.03285549 17.95037759 -2.01624872 17.86520558 7 18 C4.64048993 22.06167862 2.05432035 25.45038446 -1 29 C0.32 29 1.64 29 3 29 C3.26554687 28.42765625 3.53109375 27.8553125 3.8046875 27.265625 C5.05676891 24.8923988 6.4936352 22.87786714 8.125 20.75 C8.66382813 20.04359375 9.20265625 19.3371875 9.7578125 18.609375 C10.16773438 18.07828125 10.57765625 17.5471875 11 17 C7.55581288 14.49388534 7.55581288 14.49388534 3.4375 14.25 C2.633125 14.4975 1.82875 14.745 1 15 C0.236875 15.185625 -0.52625 15.37125 -1.3125 15.5625 C-1.869375 15.706875 -2.42625 15.85125 -3 16 C-3.33 15.01 -3.66 14.02 -4 13 C-5.65 13.33 -7.3 13.66 -9 14 C-9 14.66 -9 15.32 -9 16 C-9.66 16 -10.32 16 -11 16 C-11 14.68 -11 13.36 -11 12 C-11.66 12 -12.32 12 -13 12 C-13.33 11.01 -13.66 10.02 -14 9 C-6.69686985 4.41515651 -6.69686985 4.41515651 -3.0625 2.25 C-1.08265218 1.16205936 -1.08265218 1.16205936 0 0 Z " fill="#141F47" transform="translate(32,29)"/>
<path d="M0 0 C2.13743704 1.13158432 3.77985697 2.26909143 5.59765625 3.875 C7.62264815 5.42890162 7.62264815 5.42890162 10.1328125 5.04296875 C11.01710937 4.82253906 11.90140625 4.60210938 12.8125 4.375 C18.03171393 3.25559755 23.36465253 2.26394624 28.6875 3.1875 C30.46875 4.70703125 30.46875 4.70703125 31.6875 6.1875 C31.1925 6.5175 30.6975 6.8475 30.1875 7.1875 C27.80146161 10.36888451 28.49829009 13.27716187 28.6875 17.1875 C28.6875 17.5175 28.6875 17.8475 28.6875 18.1875 C29.3475 18.5175 30.0075 18.8475 30.6875 19.1875 C30.0275 20.1775 29.3675 21.1675 28.6875 22.1875 C29.3475 22.5175 30.0075 22.8475 30.6875 23.1875 C30.6875 25.1675 30.6875 27.1475 30.6875 29.1875 C30.1925 28.1975 30.1925 28.1975 29.6875 27.1875 C29.0275 27.1875 28.3675 27.1875 27.6875 27.1875 C27.3575 28.5075 27.0275 29.8275 26.6875 31.1875 C26.0275 31.1875 25.3675 31.1875 24.6875 31.1875 C24.6875 30.5275 24.6875 29.8675 24.6875 29.1875 C24.0275 29.1875 23.3675 29.1875 22.6875 29.1875 C22.6875 30.1775 22.6875 31.1675 22.6875 32.1875 C21.6975 31.8575 20.7075 31.5275 19.6875 31.1875 C20.0175 29.2075 20.3475 27.2275 20.6875 25.1875 C19.06149059 25.2745005 17.43660322 25.3826781 15.8125 25.5 C14.90757813 25.55800781 14.00265625 25.61601563 13.0703125 25.67578125 C10.32528399 25.9757039 10.32528399 25.9757039 8.6875 29.1875 C8.6875 28.1975 8.6875 27.2075 8.6875 26.1875 C5.7175 26.6825 5.7175 26.6825 2.6875 27.1875 C2.6875 26.1975 2.6875 25.2075 2.6875 24.1875 C4.3375 23.5275 5.9875 22.8675 7.6875 22.1875 C7.3575 20.5375 7.0275 18.8875 6.6875 17.1875 C8.3375 16.8575 9.9875 16.5275 11.6875 16.1875 C11.6875 13.8775 11.6875 11.5675 11.6875 9.1875 C9.0475 9.8475 6.4075 10.5075 3.6875 11.1875 C4.63683899 14.54183109 5.58498835 17.87996505 6.6875 21.1875 C5.0375 21.5175 3.3875 21.8475 1.6875 22.1875 C2.6775 21.8575 3.6675 21.5275 4.6875 21.1875 C4.6875 20.5275 4.6875 19.8675 4.6875 19.1875 C4.0275 19.1875 3.3675 19.1875 2.6875 19.1875 C2.56375 18.053125 2.44 16.91875 2.3125 15.75 C2.10625 14.574375 1.9 13.39875 1.6875 12.1875 C1.0275 11.8575 0.3675 11.5275 -0.3125 11.1875 C1.9975 10.1975 4.3075 9.2075 6.6875 8.1875 C6.08421875 8.4040625 5.4809375 8.620625 4.859375 8.84375 C4.06015625 9.1221875 3.2609375 9.400625 2.4375 9.6875 C1.64859375 9.9659375 0.8596875 10.244375 0.046875 10.53125 C-2.3125 11.1875 -2.3125 11.1875 -6.3125 11.1875 C-6.3125 10.5275 -6.3125 9.8675 -6.3125 9.1875 C-7.075625 9.1875 -7.83875 9.1875 -8.625 9.1875 C-10.52083333 9.1875 -12.41666667 9.1875 -14.3125 9.1875 C-15.034375 8.23875 -15.75625 7.29 -16.5 6.3125 C-19.51485151 2.39134343 -22.55038422 1.99463827 -27.3125 1.1875 C-21.67173916 -4.45326084 -6.95146113 -3.05072498 0 0 Z " fill="#773341" transform="translate(67.3125,24.8125)"/>
<path d="M0 0 C0.75925781 0.07734375 1.51851562 0.1546875 2.30078125 0.234375 C3.14759258 5.31524296 3.39116224 10.08265877 3.30078125 15.234375 C1.32078125 15.234375 -0.65921875 15.234375 -2.69921875 15.234375 C-2.69921875 14.574375 -2.69921875 13.914375 -2.69921875 13.234375 C-5.1718864 13.57882381 -5.1718864 13.57882381 -7.69921875 14.234375 C-8.02921875 14.894375 -8.35921875 15.554375 -8.69921875 16.234375 C-11.41368854 16.54678955 -14.03831236 16.74774092 -16.76171875 16.859375 C-17.89963867 16.91738281 -17.89963867 16.91738281 -19.06054688 16.9765625 C-20.9396907 17.07111062 -22.81942211 17.15384256 -24.69921875 17.234375 C-21.90829153 12.97642194 -19.00522963 9.0913877 -15.69921875 5.234375 C-20.64921875 5.564375 -25.59921875 5.894375 -30.69921875 6.234375 C-31.68921875 8.874375 -32.67921875 11.514375 -33.69921875 14.234375 C-32.04921875 14.234375 -30.39921875 14.234375 -28.69921875 14.234375 C-28.69921875 13.574375 -28.69921875 12.914375 -28.69921875 12.234375 C-29.35921875 12.234375 -30.01921875 12.234375 -30.69921875 12.234375 C-30.36921875 10.914375 -30.03921875 9.594375 -29.69921875 8.234375 C-27.38921875 8.234375 -25.07921875 8.234375 -22.69921875 8.234375 C-23.17472436 9.71472264 -23.65473091 11.19362521 -24.13671875 12.671875 C-24.40355469 13.49558594 -24.67039062 14.31929687 -24.9453125 15.16796875 C-25.69921875 17.234375 -25.69921875 17.234375 -26.69921875 18.234375 C-28.88561328 18.30696446 -31.07422264 18.31811283 -33.26171875 18.296875 C-35.05802734 18.28333984 -35.05802734 18.28333984 -36.890625 18.26953125 C-37.81746094 18.25792969 -38.74429688 18.24632813 -39.69921875 18.234375 C-39.23040041 12.60855487 -37.85473831 6.38989456 -33.69921875 2.234375 C-24.73207424 1.18475259 -15.71546747 1.09958058 -6.69921875 1.234375 C-9.05872882 5.29605362 -11.6448984 8.68475946 -14.69921875 12.234375 C-13.37921875 12.234375 -12.05921875 12.234375 -10.69921875 12.234375 C-10.29123047 11.37585938 -10.29123047 11.37585938 -9.875 10.5 C-8.67973333 8.19682834 -7.37717252 6.10797668 -5.88671875 3.984375 C-5.40589844 3.27796875 -4.92507812 2.5715625 -4.4296875 1.84375 C-2.69921875 0.234375 -2.69921875 0.234375 0 0 Z " fill="#BF5C0C" transform="translate(45.69921875,45.765625)"/>
<path d="M0 0 C0.66 0 1.32 0 2 0 C1.67 1.98 1.34 3.96 1 6 C1.66 5.67 2.32 5.34 3 5 C3.65555119 2.47266765 3.65555119 2.47266765 4 0 C4.66 0 5.32 0 6 0 C6 1.32 6 2.64 6 4 C8.475 4.495 8.475 4.495 11 5 C11 4.01 11 3.02 11 2 C11.66 2 12.32 2 13 2 C13 2.66 13 3.32 13 4 C13.66 4 14.32 4 15 4 C15.33 2.68 15.66 1.36 16 0 C16.66 0 17.32 0 18 0 C18.36154187 4.45901639 18.36154187 4.45901639 16.9375 6.58984375 C14.12425848 8.63738445 11.17819661 8.81896135 7.8125 9.25 C-1.38612866 10.5966902 -10.4312149 12.54321098 -19.5 14.5625 C-20.53657242 14.79326233 -20.53657242 14.79326233 -21.59408569 15.02868652 C-22.95442493 15.33168758 -24.31475131 15.6347464 -25.67506409 15.93786621 C-35.76860548 18.18483146 -35.76860548 18.18483146 -40.6796875 19.20703125 C-41.41429199 19.36018799 -42.14889648 19.51334473 -42.90576172 19.67114258 C-46.29817873 20.2038525 -49.57347177 20.12690845 -53 20 C-52.505 18.515 -52.505 18.515 -52 17 C-36.655 14.03 -36.655 14.03 -21 11 C-20.34 8.03 -19.68 5.06 -19 2 C-18.67 2 -18.34 2 -18 2 C-18 3.65 -18 5.3 -18 7 C-17.34 7 -16.68 7 -16 7 C-15.67 5.02 -15.34 3.04 -15 1 C-14.34 1 -13.68 1 -13 1 C-13.33 2.98 -13.66 4.96 -14 7 C-11.03 6.34 -8.06 5.68 -5 5 C-5.99 4.34 -6.98 3.68 -8 3 C-6.35 3 -4.7 3 -3 3 C-3 3.99 -3 4.98 -3 6 C-2.34 6 -1.68 6 -1 6 C-0.67 4.02 -0.34 2.04 0 0 Z " fill="#17244C" transform="translate(79,52)"/>
<path d="M0 0 C1.31104761 0.71558154 2.60440494 1.46483061 3.875 2.25 C4.56464844 2.6315625 5.25429687 3.013125 5.96484375 3.40625 C7.61899685 4.32340419 9.25009527 5.28197165 10.875 6.25 C10.875 6.91 10.875 7.57 10.875 8.25 C11.535 8.25 12.195 8.25 12.875 8.25 C12.545 8.91 12.215 9.57 11.875 10.25 C9.22639573 10.84355614 6.58302678 10.99209269 3.875 11.25 C4.82433899 14.60433109 5.77248835 17.94246505 6.875 21.25 C5.225 21.58 3.575 21.91 1.875 22.25 C2.865 21.92 3.855 21.59 4.875 21.25 C4.875 20.59 4.875 19.93 4.875 19.25 C4.215 19.25 3.555 19.25 2.875 19.25 C2.75125 18.115625 2.6275 16.98125 2.5 15.8125 C2.29375 14.636875 2.0875 13.46125 1.875 12.25 C1.215 11.92 0.555 11.59 -0.125 11.25 C2.185 10.26 4.495 9.27 6.875 8.25 C6.27171875 8.4665625 5.6684375 8.683125 5.046875 8.90625 C4.24765625 9.1846875 3.4484375 9.463125 2.625 9.75 C1.83609375 10.0284375 1.0471875 10.306875 0.234375 10.59375 C-2.125 11.25 -2.125 11.25 -6.125 11.25 C-6.125 10.59 -6.125 9.93 -6.125 9.25 C-6.888125 9.25 -7.65125 9.25 -8.4375 9.25 C-10.33333333 9.25 -12.22916667 9.25 -14.125 9.25 C-14.846875 8.30125 -15.56875 7.3525 -16.3125 6.375 C-19.32735151 2.45384343 -22.36288422 2.05713827 -27.125 1.25 C-21.5598074 -4.3151926 -6.88897681 -3.04980744 0 0 Z " fill="#122150" transform="translate(67.125,24.75)"/>
<path d="M0 0 C0 2.31 0 4.62 0 7 C-1.98 7.99 -1.98 7.99 -4 9 C-3.67 10.65 -3.34 12.3 -3 14 C-4.98 14.33 -6.96 14.66 -9 15 C-8.67 15.66 -8.34 16.32 -8 17 C-6.00045254 17.04254356 -3.99958364 17.04080783 -2 17 C-1.67 16.67 -1.34 16.34 -1 16 C0.68608966 15.92794489 2.37500659 15.91613932 4.0625 15.9375 C4.98160156 15.94652344 5.90070313 15.95554687 6.84765625 15.96484375 C7.55792969 15.97644531 8.26820312 15.98804688 9 16 C8.67 18.31 8.34 20.62 8 23 C7.01 22.67 6.02 22.34 5 22 C5.33 20.68 5.66 19.36 6 18 C5.34 18 4.68 18 4 18 C4 19.65 4 21.3 4 23 C3.01 23.33 2.02 23.66 1 24 C1.33 22.02 1.66 20.04 2 18 C1.34 18 0.68 18 0 18 C-0.33 19.98 -0.66 21.96 -1 24 C-1.66 24 -2.32 24 -3 24 C-3 23.01 -3 22.02 -3 21 C-3.66 21.99 -4.32 22.98 -5 24 C-7.1640625 24.51171875 -7.1640625 24.51171875 -9.625 24.6875 C-10.44226563 24.75324219 -11.25953125 24.81898437 -12.1015625 24.88671875 C-13.04128906 24.94279297 -13.04128906 24.94279297 -14 25 C-13.67 23.02 -13.34 21.04 -13 19 C-13.66 19 -14.32 19 -15 19 C-15.33 20.98 -15.66 22.96 -16 25 C-16.66 25 -17.32 25 -18 25 C-18.33 24.01 -18.66 23.02 -19 22 C-19.33 22.99 -19.66 23.98 -20 25 C-20.66 25 -21.32 25 -22 25 C-21.0475698 16.74560496 -21.0475698 16.74560496 -19 14 C-15.9609375 13.171875 -15.9609375 13.171875 -12.375 12.75 C-11.18648437 12.60046875 -9.99796875 12.4509375 -8.7734375 12.296875 C-7.40058594 12.14992188 -7.40058594 12.14992188 -6 12 C-6.32742187 11.40703125 -6.65484375 10.8140625 -6.9921875 10.203125 C-8.28545792 7.3759757 -8.13965059 5.07231289 -8 2 C-4.91190305 0.23537317 -3.76687864 0 0 0 Z " fill="#4C5777" transform="translate(79,34)"/>
<path d="M0 0 C0.66 0 1.32 0 2 0 C2 0.66 2 1.32 2 2 C2.66 2 3.32 2 4 2 C4 3.32 4 4.64 4 6 C4.66 6 5.32 6 6 6 C6 5.34 6 4.68 6 4 C7.65 3.67 9.3 3.34 11 3 C11.33 3.66 11.66 4.32 12 5 C12.556875 4.855625 13.11375 4.71125 13.6875 4.5625 C14.450625 4.376875 15.21375 4.19125 16 4 C16.825 3.773125 17.65 3.54625 18.5 3.3125 C21.49384431 2.93826946 22.40004329 3.58184179 25 5 C26.99110401 5.38290462 28.99100513 5.72604615 31 6 C31 6.33 31 6.66 31 7 C30.25878906 7.05027344 29.51757812 7.10054687 28.75390625 7.15234375 C24.95202735 8.32256747 24.05935681 10.25949029 21.9375 13.5625 C19.96484375 16.62890625 19.96484375 16.62890625 18 19 C16.68 19 15.36 19 14 19 C15.66751148 15.05860922 18.22710649 12.2107188 21 9 C17.04 8.67 13.08 8.34 9 8 C8.67 8.66 8.34 9.32 8 10 C8 9.34 8 8.68 8 8 C5.89535207 8.30924214 3.7912947 8.6225056 1.6875 8.9375 C0.51574219 9.11152344 -0.65601563 9.28554688 -1.86328125 9.46484375 C-5.01641403 9.92093031 -5.01641403 9.92093031 -8 11 C-10.00875442 10.72428861 -12.01178687 10.39764263 -14 10 C-12 8 -12 8 -9 7 C-8.175 5.989375 -7.35 4.97875 -6.5 3.9375 C-5.675 2.968125 -4.85 1.99875 -4 1 C-3.01 1 -2.02 1 -1 1 C-0.67 0.67 -0.34 0.34 0 0 Z " fill="#34383E" transform="translate(17,39)"/>
<path d="M0 0 C0 3 0 3 -1 6 C-0.319375 5.814375 0.36125 5.62875 1.0625 5.4375 C4.57232191 4.91476057 7.52188063 5.38621423 11 6 C11.66 7.98 12.32 9.96 13 12 C11 14 11 14 8.90625 14.125 C7.30208333 14.04166667 5.69791667 13.95833333 4.09375 13.875 C1.7766235 13.78090338 1.7766235 13.78090338 0 16 C-2.125 15.625 -2.125 15.625 -4 15 C-4 14.34 -4 13.68 -4 13 C-5.65 13.33 -7.3 13.66 -9 14 C-9 14.66 -9 15.32 -9 16 C-9.66 16 -10.32 16 -11 16 C-11 14.68 -11 13.36 -11 12 C-11.66 12 -12.32 12 -13 12 C-13.33 11.01 -13.66 10.02 -14 9 C-6.69686985 4.41515651 -6.69686985 4.41515651 -3.0625 2.25 C-1.08265218 1.16205936 -1.08265218 1.16205936 0 0 Z " fill="#72707E" transform="translate(32,29)"/>
<path d="M0 0 C2.9804195 2.5838564 5.23770875 5.4754175 7 9 C8.32 9 9.64 9 11 9 C13.25 10 13.25 10 15 11 C14.34 11.66 13.68 12.32 13 13 C12.83318891 16.08347826 12.83318891 16.08347826 13 19 C12.21625 18.649375 11.4325 18.29875 10.625 17.9375 C9.75875 17.628125 8.8925 17.31875 8 17 C7.34 17.33 6.68 17.66 6 18 C6 16.68 6 15.36 6 14 C4.02 14 2.04 14 0 14 C0.99 13.67 1.98 13.34 3 13 C3 12.01 3 11.02 3 10 C2.01 10 1.02 10 0 10 C0 8.02 0 6.04 0 4 C-2.31 4.33 -4.62 4.66 -7 5 C-7.33 4.34 -7.66 3.68 -8 3 C-9.32 3 -10.64 3 -12 3 C-12.33 4.65 -12.66 6.3 -13 8 C-14.65 8.33 -16.3 8.66 -18 9 C-17.34938905 7.32700041 -16.67966676 5.66140763 -16 4 C-15.731875 3.278125 -15.46375 2.55625 -15.1875 1.8125 C-11.64142948 -3.59992342 -5.1625522 -2.25918365 0 0 Z " fill="#9F9FA9" transform="translate(48,27)"/>
<path d="M0 0 C1.65 0.33 3.3 0.66 5 1 C4.34 3.31 3.68 5.62 3 8 C4.65 8 6.3 8 8 8 C8 7.34 8 6.68 8 6 C7.34 6 6.68 6 6 6 C6.33 4.68 6.66 3.36 7 2 C9.31 2 11.62 2 14 2 C13.52449439 3.48034764 13.04448784 4.95925021 12.5625 6.4375 C12.29566406 7.26121094 12.02882813 8.08492187 11.75390625 8.93359375 C11 11 11 11 10 12 C7.81360547 12.07258946 5.62499611 12.08373783 3.4375 12.0625 C1.64119141 12.04896484 1.64119141 12.04896484 -0.19140625 12.03515625 C-1.11824219 12.02355469 -2.04507812 12.01195313 -3 12 C-2.49202991 7.6822542 -1.80317221 3.96697886 0 0 Z " fill="#BA5A0B" transform="translate(9,52)"/>
<path d="M0 0 C0.33 0.66 0.66 1.32 1 2 C4.3677519 2.93548664 7.5184446 3.09947301 11 3 C11.33 2.34 11.66 1.68 12 1 C12.33 2.32 12.66 3.64 13 5 C12.360625 5.12375 11.72125 5.2475 11.0625 5.375 C10.381875 5.58125 9.70125 5.7875 9 6 C8.67 6.66 8.34 7.32 8 8 C5.9375 8.625 5.9375 8.625 4 9 C5.32 9.66 6.64 10.32 8 11 C5.25839448 12.25330538 3.35485135 13.00825236 0.3125 12.9375 C-0.450625 12.958125 -1.21375 12.97875 -2 13 C-2.99 14.485 -2.99 14.485 -4 16 C-4 15.01 -4 14.02 -4 13 C-5.98 13.33 -7.96 13.66 -10 14 C-10 13.01 -10 12.02 -10 11 C-8.35 10.34 -6.7 9.68 -5 9 C-5.33 7.35 -5.66 5.7 -6 4 C-5.34 4 -4.68 4 -4 4 C-4 4.66 -4 5.32 -4 6 C-2.35 5.67 -0.7 5.34 1 5 C0.67 3.35 0.34 1.7 0 0 Z " fill="#1B2549" transform="translate(80,38)"/>
<path d="M0 0 C0.33 0.99 0.66 1.98 1 3 C2.32 3 3.64 3 5 3 C5 3.66 5 4.32 5 5 C5.74765625 4.69964844 6.4953125 4.39929687 7.265625 4.08984375 C8.25046875 3.70957031 9.2353125 3.32929687 10.25 2.9375 C11.22453125 2.55464844 12.1990625 2.17179687 13.203125 1.77734375 C16.04007395 0.98886213 17.29409552 0.97562188 20 2 C18.02 2.99 16.04 3.98 14 5 C14 5.99 14 6.98 14 8 C14 9.66666667 14 11.33333333 14 13 C14.66 13 15.32 13 16 13 C16 13.66 16 14.32 16 15 C14.35 15.33 12.7 15.66 11 16 C10.67 15.34 10.34 14.68 10 14 C7.97536745 13.34786708 7.97536745 13.34786708 6 13 C5.67 13.99 5.34 14.98 5 16 C4.375 12.625 4.375 12.625 4 9 C4.66 8.34 5.32 7.68 6 7 C4.02253397 6.26919734 2.01927511 5.60578253 0 5 C-0.99 5.495 -0.99 5.495 -2 6 C-1.34 4.02 -0.68 2.04 0 0 Z " fill="#703D4F" transform="translate(56,31)"/>
<path d="M0 0 C-5.18311105 2.98314335 -11.19692576 3.60120994 -16.99707031 4.71435547 C-19.09937075 5.12005411 -21.1980034 5.54181154 -23.296875 5.96484375 C-30.56259683 7.39366771 -37.56225914 8.46137619 -45 8 C-42.22729809 5.22729809 -39.91452558 5.2436274 -36.0625 4.5625 C-35.01352539 4.37627075 -35.01352539 4.37627075 -33.94335938 4.1862793 C-31.63053527 3.78072142 -29.31556027 3.38961266 -27 3 C-26.17999512 2.85884766 -25.35999023 2.71769531 -24.51513672 2.57226562 C-22.01151644 2.14326769 -19.5062694 1.72571916 -17 1.3125 C-16.22406494 1.18109619 -15.44812988 1.04969238 -14.64868164 0.91430664 C-9.70259807 0.12350685 -5.00915537 -0.11953666 0 0 Z " fill="#BB242C" transform="translate(62,62)"/>
<path d="M0 0 C-1.36370299 2.99220268 -2.94908083 5.29026529 -5.125 7.75 C-5.93324219 8.67039062 -5.93324219 8.67039062 -6.7578125 9.609375 C-7.37269531 10.29773438 -7.37269531 10.29773438 -8 11 C-7.67 11.66 -7.34 12.32 -7 13 C-8.32 12.67 -9.64 12.34 -11 12 C-9.68 9.03 -8.36 6.06 -7 3 C-9.31 3.33 -11.62 3.66 -14 4 C-14.33 4.99 -14.66 5.98 -15 7 C-14.34 7 -13.68 7 -13 7 C-13 7.66 -13 8.32 -13 9 C-14.65 9 -16.3 9 -18 9 C-17.5020163 5.26512223 -17.12508244 3.18762365 -15 0 C-10.04861455 -1.38638793 -4.97482491 -1.14803652 0 0 Z " fill="#2C2B35" transform="translate(30,51)"/>
<path d="M0 0 C1.37478516 0.01740234 1.37478516 0.01740234 2.77734375 0.03515625 C3.69644531 0.04417969 4.61554688 0.05320313 5.5625 0.0625 C6.27277344 0.07410156 6.98304687 0.08570313 7.71484375 0.09765625 C7.38484375 2.40765625 7.05484375 4.71765625 6.71484375 7.09765625 C5.72484375 6.76765625 4.73484375 6.43765625 3.71484375 6.09765625 C4.04484375 4.77765625 4.37484375 3.45765625 4.71484375 2.09765625 C4.05484375 2.09765625 3.39484375 2.09765625 2.71484375 2.09765625 C2.71484375 3.74765625 2.71484375 5.39765625 2.71484375 7.09765625 C1.72484375 7.42765625 0.73484375 7.75765625 -0.28515625 8.09765625 C0.04484375 6.11765625 0.37484375 4.13765625 0.71484375 2.09765625 C0.05484375 2.09765625 -0.60515625 2.09765625 -1.28515625 2.09765625 C-1.61515625 4.07765625 -1.94515625 6.05765625 -2.28515625 8.09765625 C-2.94515625 8.09765625 -3.60515625 8.09765625 -4.28515625 8.09765625 C-4.28515625 7.10765625 -4.28515625 6.11765625 -4.28515625 5.09765625 C-5.27515625 6.58265625 -5.27515625 6.58265625 -6.28515625 8.09765625 C-8.91015625 8.28515625 -8.91015625 8.28515625 -11.28515625 8.09765625 C-11.41015625 5.72265625 -11.41015625 5.72265625 -11.28515625 3.09765625 C-9.28515625 1.09765625 -9.28515625 1.09765625 -6.22265625 1.03515625 C-4.76859375 1.06609375 -4.76859375 1.06609375 -3.28515625 1.09765625 C-2.28515625 0.09765625 -2.28515625 0.09765625 0 0 Z " fill="#C4C6CC" transform="translate(80.28515625,49.90234375)"/>
<path d="M0 0 C-3.08809695 1.76462683 -4.23312136 2 -8 2 C-8 2.99 -8 3.98 -8 5 C-8.66 5 -9.32 5 -10 5 C-10 4.34 -10 3.68 -10 3 C-10.66 3 -11.32 3 -12 3 C-12 3.99 -12 4.98 -12 6 C-12.66 6 -13.32 6 -14 6 C-14.33 5.67 -14.66 5.34 -15 5 C-15.99 5.495 -15.99 5.495 -17 6 C-18.68301132 6.20713985 -20.37202485 6.36685428 -22.0625 6.5 C-27.05452095 6.91490412 -32.02353874 7.42893067 -37 8 C-37.33 7.34 -37.66 6.68 -38 6 C-34.19846229 5.13178082 -30.39397861 4.27798212 -26.58642578 3.43652344 C-24.6666513 3.00926967 -22.74930333 2.57115895 -20.83203125 2.1328125 C-13.7766648 0.58137066 -7.22898149 -0.45563467 0 0 Z " fill="#E8BB9F" transform="translate(96,60)"/>
<path d="M0 0 C2 1 2 1 5 3 C5.1875 6.125 5.1875 6.125 5 9 C4.67 8.34 4.34 7.68 4 7 C3.34 7 2.68 7 2 7 C1.67 8.32 1.34 9.64 1 11 C0.34 11 -0.32 11 -1 11 C-1 10.34 -1 9.68 -1 9 C-1.66 9 -2.32 9 -3 9 C-3 9.99 -3 10.98 -3 12 C-3.99 11.67 -4.98 11.34 -6 11 C-5.67 9.02 -5.34 7.04 -5 5 C-5.99 4.67 -6.98 4.34 -8 4 C-7.01 4 -6.02 4 -5 4 C-5 3.34 -5 2.68 -5 2 C-2.625 0.9375 -2.625 0.9375 0 0 Z " fill="#263057" transform="translate(93,45)"/>
<path d="M0 0 C3.5875213 1.33250791 6.8364623 2.830717 10 5 C10 5.66 10 6.32 10 7 C10.66 7 11.32 7 12 7 C11.67 7.66 11.34 8.32 11 9 C8.35139573 9.59355614 5.70802678 9.74209269 3 10 C3.94933899 13.35433109 4.89748835 16.69246505 6 20 C4.35 20.33 2.7 20.66 1 21 C1.99 20.67 2.98 20.34 4 20 C4 19.34 4 18.68 4 18 C3.34 18 2.68 18 2 18 C1.87625 16.865625 1.7525 15.73125 1.625 14.5625 C1.41875 13.386875 1.2125 12.21125 1 11 C0.34 10.67 -0.32 10.34 -1 10 C1.31 9.01 3.62 8.02 6 7 C4.02 7.33 2.04 7.66 0 8 C-2 5 -2 5 -2 2 C-1.34 2 -0.68 2 0 2 C0 1.34 0 0.68 0 0 Z " fill="#2D345C" transform="translate(68,26)"/>
<path d="M0 0 C0.33 0 0.66 0 1 0 C1.28875 1.11375 1.5775 2.2275 1.875 3.375 C2.69241329 7.00291092 2.69241329 7.00291092 5 9 C4.31292969 9.06058594 3.62585938 9.12117188 2.91796875 9.18359375 C2.01691406 9.26738281 1.11585937 9.35117187 0.1875 9.4375 C-1.15248047 9.55931641 -1.15248047 9.55931641 -2.51953125 9.68359375 C-5.12743559 9.93489767 -5.12743559 9.93489767 -8 11 C-10.00875442 10.72428861 -12.01178687 10.39764263 -14 10 C-12 8 -12 8 -9 7 C-8.175 5.989375 -7.35 4.97875 -6.5 3.9375 C-5.675 2.968125 -4.85 1.99875 -4 1 C-3.01 1 -2.02 1 -1 1 C-0.67 0.67 -0.34 0.34 0 0 Z " fill="#293B68" transform="translate(17,39)"/>
<path d="M0 0 C0 3.3 0 6.6 0 10 C-1.32 10 -2.64 10 -4 10 C-4.33 9.01 -4.66 8.02 -5 7 C-5.66 8.32 -6.32 9.64 -7 11 C-8.32 11 -9.64 11 -11 11 C-10.38897887 4.07509382 -7.06152909 0 0 0 Z " fill="#F1B920" transform="translate(48,46)"/>
<path d="M0 0 C1.67542976 0.28604898 3.34385343 0.61781233 5 1 C5 1.66 5 2.32 5 3 C5.5775 2.649375 6.155 2.29875 6.75 1.9375 C9.35801776 0.85082593 10.39417629 1.06934867 13 2 C12.67 3.32 12.34 4.64 12 6 C7.74433453 7.16063604 4.3164922 6.76173392 0 6 C-0.38218767 4.34385343 -0.71395102 2.67542976 -1 1 C-0.67 0.67 -0.34 0.34 0 0 Z " fill="#263251" transform="translate(36,29)"/>
<path d="M0 0 C-0.66 2.97 -1.32 5.94 -2 9 C-3.32 9.33 -4.64 9.66 -6 10 C-6 10.66 -6 11.32 -6 12 C-6.66 12 -7.32 12 -8 12 C-8 10.68 -8 9.36 -8 8 C-8.66 8 -9.32 8 -10 8 C-10.33 7.01 -10.66 6.02 -11 5 C-9.73461631 4.15841464 -8.46246221 3.32700252 -7.1875 2.5 C-6.47980469 2.0359375 -5.77210937 1.571875 -5.04296875 1.09375 C-3 0 -3 0 0 0 Z " fill="#DE5A38" transform="translate(29,33)"/>
<path d="M0 0 C0.33 0.66 0.66 1.32 1 2 C1.66 2 2.32 2 3 2 C3 3.32 3 4.64 3 6 C3.66 6 4.32 6 5 6 C5 5.34 5 4.68 5 4 C6.65 3.67 8.3 3.34 10 3 C10.33 3.66 10.66 4.32 11 5 C11.598125 4.835 12.19625 4.67 12.8125 4.5 C15 4 15 4 18 4 C18 4.99 18 5.98 18 7 C16.93458984 7.07347656 16.93458984 7.07347656 15.84765625 7.1484375 C14.92855469 7.22320312 14.00945313 7.29796875 13.0625 7.375 C12.14597656 7.44460937 11.22945312 7.51421875 10.28515625 7.5859375 C9.15400391 7.79089844 9.15400391 7.79089844 8 8 C7.67 8.66 7.34 9.32 7 10 C7 9.34 7 8.68 7 8 C5.02 8 3.04 8 1 8 C0.67 5.36 0.34 2.72 0 0 Z " fill="#1E2448" transform="translate(18,39)"/>
<path d="M0 0 C0.66 0 1.32 0 2 0 C1.67 1.98 1.34 3.96 1 6 C1.66 5.67 2.32 5.34 3 5 C4.99960012 4.960008 7.00047242 4.95653201 9 5 C8.01 5.33 7.02 5.66 6 6 C6 6.99 6 7.98 6 9 C-1.5 10.125 -1.5 10.125 -6 9 C-5.34 6.36 -4.68 3.72 -4 1 C-3.67 1 -3.34 1 -3 1 C-3 2.65 -3 4.3 -3 6 C-2.34 6 -1.68 6 -1 6 C-0.67 4.02 -0.34 2.04 0 0 Z " fill="#172348" transform="translate(64,53)"/>
<path d="M0 0 C1.65 0 3.3 0 5 0 C5 5.94 5 11.88 5 18 C3.68 18.33 2.36 18.66 1 19 C0.34 18.34 -0.32 17.68 -1 17 C-0.525625 16.29875 -0.05125 15.5975 0.4375 14.875 C2.08739857 11.83918663 2.60368464 9.40831214 3 6 C1.68 5.34 0.36 4.68 -1 4 C-0.34 3.34 0.32 2.68 1 2 C0.34 1.67 -0.32 1.34 -1 1 C-0.67 0.67 -0.34 0.34 0 0 Z " fill="#F0E9E9" transform="translate(95,42)"/>
<path d="M0 0 C0.66 0 1.32 0 2 0 C1.69255859 1.01320312 1.69255859 1.01320312 1.37890625 2.046875 C1.10949219 2.93890625 0.84007812 3.8309375 0.5625 4.75 C0.29566406 5.63171875 0.02882813 6.5134375 -0.24609375 7.421875 C-0.88468494 9.60565835 -1.46775833 11.78835498 -2 14 C-0.35 14 1.3 14 3 14 C3 14.66 3 15.32 3 16 C4.32 16.33 5.64 16.66 7 17 C3.25976024 18.24674659 0.83399823 17.76679965 -3 17 C-3.66 16.34 -4.32 15.68 -5 15 C-4.73271406 9.52063832 -2.32653094 4.86948337 0 0 Z " fill="#1C2442" transform="translate(8,50)"/>
<path d="M0 0 C2.64 0 5.28 0 8 0 C8 2.31 8 4.62 8 7 C6.35 7 4.7 7 3 7 C3 7.99 3 8.98 3 10 C1 9 1 9 0 8 C-0.14115161 5.32941149 -0.04247107 2.67567762 0 0 Z " fill="#E94626" transform="translate(81,32)"/>
<path d="M0 0 C-0.33 0.66 -0.66 1.32 -1 2 C-2.2065625 1.9690625 -2.2065625 1.9690625 -3.4375 1.9375 C-5.93354885 1.70366379 -5.93354885 1.70366379 -7 3 C-8.66666667 3 -10.33333333 3 -12 3 C-12.99 3.33 -13.98 3.66 -15 4 C-15 7.63 -15 11.26 -15 15 C-16.65 15.33 -18.3 15.66 -20 16 C-19.67 15.01 -19.34 14.02 -19 13 C-18.34 13 -17.68 13 -17 13 C-17.020625 12.05125 -17.04125 11.1025 -17.0625 10.125 C-17 7 -17 7 -16 5 C-16.66 5 -17.32 5 -18 5 C-18 4.01 -18 3.02 -18 2 C-11.84629161 0.176679 -6.40353322 -0.2361959 0 0 Z " fill="#6F6F7C" transform="translate(96,28)"/>
<path d="M0 0 C0 2.31 0 4.62 0 7 C-2.31 7.66 -4.62 8.32 -7 9 C-8 8 -8 8 -8.0625 4.9375 C-8.041875 3.968125 -8.02125 2.99875 -8 2 C-4.91190305 0.23537317 -3.76687864 0 0 0 Z " fill="#E5801F" transform="translate(79,34)"/>
<path d="M0 0 C0.33 1.32 0.66 2.64 1 4 C2.32 4 3.64 4 5 4 C5.33 3.01 5.66 2.02 6 1 C6 3.64 6 6.28 6 9 C4.02 9 2.04 9 0 9 C0 8.34 0 7.68 0 7 C-2.64 6.67 -5.28 6.34 -8 6 C-7.67 5.01 -7.34 4.02 -7 3 C-6.67 3.66 -6.34 4.32 -6 5 C-4.68 5 -3.36 5 -2 5 C-1.855625 4.360625 -1.71125 3.72125 -1.5625 3.0625 C-1 1 -1 1 0 0 Z " fill="#AB6017" transform="translate(43,52)"/>
<path d="M0 0 C2.97 0.495 2.97 0.495 6 1 C6.33 1.99 6.66 2.98 7 4 C6.04287109 4.07347656 6.04287109 4.07347656 5.06640625 4.1484375 C4.24011719 4.22320312 3.41382812 4.29796875 2.5625 4.375 C1.73878906 4.44460937 0.91507813 4.51421875 0.06640625 4.5859375 C-0.95646484 4.79089844 -0.95646484 4.79089844 -2 5 C-2.33 5.66 -2.66 6.32 -3 7 C-2.34 7.33 -1.68 7.66 -1 8 C-1.99 8 -2.98 8 -4 8 C-4 7.01 -4 6.02 -4 5 C-7.62885324 4.84850702 -7.62885324 4.84850702 -11 6 C-10.67 5.01 -10.34 4.02 -10 3 C-7.04335481 1.5216774 -4.25770263 1.93967217 -1 2 C-0.67 1.34 -0.34 0.68 0 0 Z " fill="#30284C" transform="translate(62,44)"/>
<path d="M0 0 C-3.62262966 2.11473305 -7.28295669 2.81639264 -11.375 3.625 C-13.30472656 4.01558594 -13.30472656 4.01558594 -15.2734375 4.4140625 C-18.60063459 4.9372067 -21.64202482 5.11435829 -25 5 C-25 4.34 -25 3.68 -25 3 C-22.3347536 2.49118023 -19.66821581 1.99279859 -17 1.5 C-15.88431641 1.28537109 -15.88431641 1.28537109 -14.74609375 1.06640625 C-9.74779985 0.15367432 -5.08079684 -0.13856719 0 0 Z " fill="#D5B733" transform="translate(62,62)"/>
<path d="M0 0 C1.65322266 0.01740234 1.65322266 0.01740234 3.33984375 0.03515625 C4.99693359 0.04869141 4.99693359 0.04869141 6.6875 0.0625 C7.54214844 0.07410156 8.39679687 0.08570313 9.27734375 0.09765625 C9.27734375 1.08765625 9.27734375 2.07765625 9.27734375 3.09765625 C8.38982422 3.18853516 8.38982422 3.18853516 7.484375 3.28125 C3.36756167 3.71777996 -0.67810158 4.18436971 -4.72265625 5.09765625 C-3.60073576 0.12915121 -3.60073576 0.12915121 0 0 Z " fill="#F4E8A9" transform="translate(14.72265625,47.90234375)"/>
<path d="M0 0 C1.22589844 0.15275391 1.22589844 0.15275391 2.4765625 0.30859375 C3.41628906 0.43427734 3.41628906 0.43427734 4.375 0.5625 C4.045 1.5525 3.715 2.5425 3.375 3.5625 C1.3125 4.25 1.3125 4.25 -0.625 4.5625 C-0.955 3.9025 -1.285 3.2425 -1.625 2.5625 C-2.945 2.5625 -4.265 2.5625 -5.625 2.5625 C-5.955 4.2125 -6.285 5.8625 -6.625 7.5625 C-8.275 7.8925 -9.925 8.2225 -11.625 8.5625 C-9.39632454 2.21934676 -6.90550138 -0.88785018 0 0 Z " fill="#DBDDE0" transform="translate(41.625,27.4375)"/>
<path d="M0 0 C0 1.65 0 3.3 0 5 C-0.99 5.495 -0.99 5.495 -2 6 C-2 4.68 -2 3.36 -2 2 C-2.66 2 -3.32 2 -4 2 C-4.33 3.98 -4.66 5.96 -5 8 C-5.66 8 -6.32 8 -7 8 C-7.33 7.01 -7.66 6.02 -8 5 C-8.33 5.99 -8.66 6.98 -9 8 C-9.66 8 -10.32 8 -11 8 C-10.67 5.69 -10.34 3.38 -10 1 C-3.375 0 -3.375 0 0 0 Z " fill="#B3B5BB" transform="translate(68,51)"/>
<path d="M0 0 C2.31 0.66 4.62 1.32 7 2 C6.01 3.485 6.01 3.485 5 5 C4.83300768 8.12521833 4.83300768 8.12521833 5 11 C4.21625 10.649375 3.4325 10.29875 2.625 9.9375 C1.75875 9.628125 0.8925 9.31875 0 9 C-0.99 9.495 -0.99 9.495 -2 10 C-2 8.68 -2 7.36 -2 6 C-3.98 6 -5.96 6 -8 6 C-5 4 -5 4 -2.8125 4.375 C-2.214375 4.58125 -1.61625 4.7875 -1 5 C-1 5.66 -1 6.32 -1 7 C0.32 7 1.64 7 3 7 C3 6.01 3 5.02 3 4 C1.35 4 -0.3 4 -2 4 C-1.34 2.68 -0.68 1.36 0 0 Z " fill="#E8AD39" transform="translate(56,35)"/>
<path d="M0 0 C1.32 0 2.64 0 4 0 C3.67 2.97 3.34 5.94 3 9 C2.01 9 1.02 9 0 9 C-2.1875 6 -2.1875 6 -4 3 C-2.68 2.67 -1.36 2.34 0 2 C0 1.34 0 0.68 0 0 Z " fill="#313F70" transform="translate(53,25)"/>
<path d="M0 0 C0.66 0 1.32 0 2 0 C2.36393443 4.48852459 2.36393443 4.48852459 0.84375 6.625 C-1.66143313 8.49327216 -3.59248309 8.50544018 -6.6875 8.6875 C-7.68136719 8.75324219 -8.67523438 8.81898437 -9.69921875 8.88671875 C-10.45847656 8.92410156 -11.21773438 8.96148437 -12 9 C-11 7 -11 7 -7.9375 5.875 C-6.4834375 5.441875 -6.4834375 5.441875 -5 5 C-5 4.01 -5 3.02 -5 2 C-4.34 2 -3.68 2 -3 2 C-3 2.66 -3 3.32 -3 4 C-2.34 4 -1.68 4 -1 4 C-0.67 2.68 -0.34 1.36 0 0 Z " fill="#263255" transform="translate(95,52)"/>
<path d="M0 0 C-0.33 0.99 -0.66 1.98 -1 3 C-6.61 3 -12.22 3 -18 3 C-17.67 2.34 -17.34 1.68 -17 1 C-11.4570561 -0.45866945 -5.68676891 -0.09106925 0 0 Z " fill="#08143B" transform="translate(34,63)"/>
<path d="M0 0 C-1.36370299 2.99220268 -2.94908083 5.29026529 -5.125 7.75 C-5.93324219 8.67039062 -5.93324219 8.67039062 -6.7578125 9.609375 C-7.16773438 10.06828125 -7.57765625 10.5271875 -8 11 C-7.67 11.66 -7.34 12.32 -7 13 C-8.32 12.67 -9.64 12.34 -11 12 C-10.21619539 10.18408626 -9.42271553 8.37234593 -8.625 6.5625 C-8.18414063 5.55316406 -7.74328125 4.54382812 -7.2890625 3.50390625 C-5.30349845 -0.3529015 -4.41603168 0 0 0 Z " fill="#1D1F38" transform="translate(30,51)"/>
<path d="M0 0 C0.33 0.66 0.66 1.32 1 2 C1.99 2 2.98 2 4 2 C4 3.65 4 5.3 4 7 C2.02 7.66 0.04 8.32 -2 9 C-2.66 8.34 -3.32 7.68 -4 7 C-4 3 -4 3 -3 1 C-2.01 0.67 -1.02 0.34 0 0 Z " fill="#444555" transform="translate(47,35)"/>
<path d="M0 0 C1.65 0.33 3.3 0.66 5 1 C5.625 3.375 5.625 3.375 6 6 C4 8 4 8 1.375 8.125 C0.59125 8.08375 -0.1925 8.0425 -1 8 C-1.33 6.35 -1.66 4.7 -2 3 C-1.34 3 -0.68 3 0 3 C0 2.01 0 1.02 0 0 Z " fill="#8A8B91" transform="translate(39,35)"/>
<path d="M0 0 C1.21236328 0.01353516 1.21236328 0.01353516 2.44921875 0.02734375 C3.37154297 0.04474609 3.37154297 0.04474609 4.3125 0.0625 C3.9825 1.3825 3.6525 2.7025 3.3125 4.0625 C-1.53242197 5.57653812 -4.9466011 4.42852172 -9.6875 3.0625 C-6.66074696 0.03574696 -4.08749979 -0.05923913 0 0 Z " fill="#192449" transform="translate(49.6875,22.9375)"/>
<path d="M0 0 C4.29 0 8.58 0 13 0 C12.34 1.32 11.68 2.64 11 4 C7.37 3.67 3.74 3.34 0 3 C0 2.01 0 1.02 0 0 Z " fill="#F6EBB5" transform="translate(26,47)"/>
<path d="M0 0 C1.89492187 0.01353516 1.89492187 0.01353516 3.828125 0.02734375 C4.79234375 0.03894531 5.7565625 0.05054688 6.75 0.0625 C3.17203333 3.03639438 1.35468607 3.0625 -3.25 3.0625 C-4.24 4.5475 -4.24 4.5475 -5.25 6.0625 C-5.25 5.0725 -5.25 4.0825 -5.25 3.0625 C-7.23 3.3925 -9.21 3.7225 -11.25 4.0625 C-11.25 3.0725 -11.25 2.0825 -11.25 1.0625 C-7.49600202 -0.1414337 -3.91782588 -0.03627617 0 0 Z " fill="#1A2550" transform="translate(81.25,47.9375)"/>
<path d="M0 0 C0.33 0.99 0.66 1.98 1 3 C2.32 3 3.64 3 5 3 C5 3.66 5 4.32 5 5 C5.74765625 4.69964844 6.4953125 4.39929687 7.265625 4.08984375 C8.25046875 3.70957031 9.2353125 3.32929687 10.25 2.9375 C11.22453125 2.55464844 12.1990625 2.17179687 13.203125 1.77734375 C16.04007395 0.98886213 17.29409552 0.97562188 20 2 C8.50702595 7.70817711 8.50702595 7.70817711 3.375 6.25 C2.26125 5.8375 1.1475 5.425 0 5 C-0.99 5.495 -0.99 5.495 -2 6 C-1.34 4.02 -0.68 2.04 0 0 Z " fill="#A59B8E" transform="translate(56,31)"/>
<path d="M0 0 C0.33 0.66 0.66 1.32 1 2 C-0.41538717 2.33872513 -1.83237963 2.67074624 -3.25 3 C-4.03890625 3.185625 -4.8278125 3.37125 -5.640625 3.5625 C-8 4 -8 4 -12 4 C-12.33 3.01 -12.66 2.02 -13 1 C-11.58622218 0.63447197 -10.16879424 0.28304505 -8.75 -0.0625 C-7.96109375 -0.25972656 -7.1721875 -0.45695312 -6.359375 -0.66015625 C-3.86185292 -1.01989867 -2.34449197 -0.9077126 0 0 Z " fill="#253558" transform="translate(62,64)"/>
<path d="M0 0 C0.99 0 1.98 0 3 0 C3.33 0.66 3.66 1.32 4 2 C6.34907875 2.68931344 6.34907875 2.68931344 9.0625 3.125 C9.98160156 3.29257812 10.90070312 3.46015625 11.84765625 3.6328125 C12.91306641 3.81457031 12.91306641 3.81457031 14 4 C12.25 6.5 12.25 6.5 10 9 C8.68 9 7.36 9 6 9 C6.66 7.35 7.32 5.7 8 4 C6.35 4 4.7 4 3 4 C2.67 3.01 2.34 2.02 2 1 C1.34 0.67 0.68 0.34 0 0 Z " fill="#DDB73B" transform="translate(22,47)"/>
<path d="M0 0 C0.79921875 0.01804688 1.5984375 0.03609375 2.421875 0.0546875 C3.02515625 0.07789063 3.6284375 0.10109375 4.25 0.125 C4.25 0.785 4.25 1.445 4.25 2.125 C0.29 3.115 -3.67 4.105 -7.75 5.125 C-8.08 4.135 -8.41 3.145 -8.75 2.125 C-5.68753253 0.34090198 -3.52920727 -0.10380021 0 0 Z " fill="#351231" transform="translate(83.75,43.875)"/>
<path d="M0 0 C0.33 0.99 0.66 1.98 1 3 C2.32 3 3.64 3 5 3 C5.33 3.66 5.66 4.32 6 5 C-0.625 6 -0.625 6 -4 6 C-4 5.01 -4 4.02 -4 3 C-5.32 2.67 -6.64 2.34 -8 2 C-5.09399739 0.74335022 -3.20395416 0 0 0 Z " fill="#99837B" transform="translate(54,41)"/>
<path d="M0 0 C0.185625 0.639375 0.37125 1.27875 0.5625 1.9375 C1.94246056 4.42126213 1.94246056 4.42126213 5.625 4.75 C6.73875 4.8325 7.8525 4.915 9 5 C9 5.66 9 6.32 9 7 C5.84493858 7.93619813 3.03413498 8.1057123 -0.25 8.0625 C-1.14203125 8.05347656 -2.0340625 8.04445313 -2.953125 8.03515625 C-3.62859375 8.02355469 -4.3040625 8.01195312 -5 8 C-4.35546875 7.73445313 -3.7109375 7.46890625 -3.046875 7.1953125 C-2.37140625 6.80085938 -1.6959375 6.40640625 -1 6 C-0.18415432 2.94091587 -0.18415432 2.94091587 0 0 Z " fill="#0C1A41" transform="translate(49,55)"/>
<path d="M0 0 C1.65 0.33 3.3 0.66 5 1 C4.01 3.31 3.02 5.62 2 8 C0.68 8 -0.64 8 -2 8 C-1.47731534 5.23723823 -0.89130413 2.6739124 0 0 Z " fill="#ECAB1A" transform="translate(9,52)"/>
<path d="M0 0 C-1.23749657 3.42691357 -2.4510637 6.35302769 -5 9 C-6.32 9 -7.64 9 -9 9 C-7.45665977 5.21180126 -4.44676575 0 0 0 Z " fill="#202337" transform="translate(40,49)"/>
<path d="M0 0 C1.65 0 3.3 0 5 0 C5 1.65 5 3.3 5 5 C2.69 5 0.38 5 -2 5 C-1.34 3.35 -0.68 1.7 0 0 Z " fill="#F7E89F" transform="translate(43,46)"/>
<path d="M0 0 C-0.33 1.32 -0.66 2.64 -1 4 C-2.65 4.33 -4.3 4.66 -6 5 C-6 3.35 -6 1.7 -6 0 C-3.50907189 -1.24546405 -2.58919267 -0.7767578 0 0 Z " fill="#152346" transform="translate(49,31)"/>
<path d="M0 0 C0 0.66 0 1.32 0 2 C-1.32 2 -2.64 2 -4 2 C-4 3.32 -4 4.64 -4 6 C-3.01 6.33 -2.02 6.66 -1 7 C-2.65 7.33 -4.3 7.66 -6 8 C-6.6875 6.25 -6.6875 6.25 -7 4 C-4.96738407 0.1487277 -4.56536841 0 0 0 Z " fill="#B7B9C0" transform="translate(57,52)"/>
<path d="M0 0 C0 0.66 0 1.32 0 2 C0.99 2 1.98 2 3 2 C3 3.32 3 4.64 3 6 C1.68 6 0.36 6 -1 6 C-1 5.34 -1 4.68 -1 4 C-2.32 4 -3.64 4 -5 4 C-5 3.34 -5 2.68 -5 2 C-2 0 -2 0 0 0 Z " fill="#363B69" transform="translate(62,30)"/>
<path d="M0 0 C0.78375 0.04125 1.5675 0.0825 2.375 0.125 C2.375 1.115 2.375 2.105 2.375 3.125 C1.715 3.125 1.055 3.125 0.375 3.125 C0.375 2.465 0.375 1.805 0.375 1.125 C-0.615 1.62 -0.615 1.62 -1.625 2.125 C-1.955 3.115 -2.285 4.105 -2.625 5.125 C-1.305 5.455 0.015 5.785 1.375 6.125 C0.375 7.125 0.375 7.125 -2.1875 7.1875 C-3.3940625 7.1565625 -3.3940625 7.1565625 -4.625 7.125 C-4.75 4.75 -4.75 4.75 -4.625 2.125 C-2.625 0.125 -2.625 0.125 0 0 Z " fill="#C5C7CB" transform="translate(73.625,50.875)"/>
<path d="M0 0 C1.32 0.33 2.64 0.66 4 1 C3.67 2.65 3.34 4.3 3 6 C1.35 5.67 -0.3 5.34 -2 5 C-2 4.01 -2 3.02 -2 2 C-1.34 2 -0.68 2 0 2 C0 1.34 0 0.68 0 0 Z " fill="#152349" transform="translate(32,35)"/>
<path d="M0 0 C-1.32 0.33 -2.64 0.66 -4 1 C-4 1.66 -4 2.32 -4 3 C-8.455 3.495 -8.455 3.495 -13 4 C-13.33 3.34 -13.66 2.68 -14 2 C-9.15758367 0.66416101 -5.06562383 -0.25328119 0 0 Z " fill="#E4DEB8" transform="translate(72,64)"/>
<path d="M0 0 C1.65 0 3.3 0 5 0 C4.67 1.98 4.34 3.96 4 6 C3.34 6 2.68 6 2 6 C2 5.34 2 4.68 2 4 C1.34 4 0.68 4 0 4 C0 4.99 0 5.98 0 7 C-0.66 7 -1.32 7 -2 7 C-1.625 5.0625 -1.625 5.0625 -1 3 C-0.34 2.67 0.32 2.34 1 2 C0.67 1.34 0.34 0.68 0 0 Z " fill="#CACBCF" transform="translate(90,50)"/>
<path d="M0 0 C2 1 2 1 5 3 C5.1875 6.125 5.1875 6.125 5 9 C4.67 8.34 4.34 7.68 4 7 C3.34 7 2.68 7 2 7 C2 6.34 2 5.68 2 5 C0.35 5 -1.3 5 -3 5 C-2.01 3.35 -1.02 1.7 0 0 Z " fill="#374166" transform="translate(93,45)"/>
<path d="M0 0 C0.33 0 0.66 0 1 0 C1 2.31 1 4.62 1 7 C3.31 7 5.62 7 8 7 C5.24075815 8.80411967 4.11027897 9.0127245 0.75 8.625 C-0.61125 8.315625 -0.61125 8.315625 -2 8 C-1.34 5.36 -0.68 2.72 0 0 Z " fill="#434246" transform="translate(60,54)"/>
<path d="M0 0 C2.31 0 4.62 0 7 0 C6.67 1.32 6.34 2.64 6 4 C3.03 3.505 3.03 3.505 0 3 C0 2.01 0 1.02 0 0 Z " fill="#F0AC15" transform="translate(16,54)"/>
<path d="M0 0 C1.04449911 3.13349732 0.93423645 3.98968256 0 7 C0.66 7.33 1.32 7.66 2 8 C-0.16874252 7.49396008 -1.99967627 7.00016187 -4 6 C-4 4.68 -4 3.36 -4 2 C-2.68 2 -1.36 2 0 2 C0 1.34 0 0.68 0 0 Z " fill="#222E53" transform="translate(57,52)"/>
<path d="M0 0 C0.33 0 0.66 0 1 0 C1 1.98 1 3.96 1 6 C-0.65 6.33 -2.3 6.66 -4 7 C-4 5.35 -4 3.7 -4 2 C-3.01 2 -2.02 2 -1 2 C-0.67 1.34 -0.34 0.68 0 0 Z " fill="#F5A215" transform="translate(26,36)"/>
<path d="M0 0 C0.66 0 1.32 0 2 0 C2.33 1.65 2.66 3.3 3 5 C0.69 5.66 -1.62 6.32 -4 7 C-4.66 6.34 -5.32 5.68 -6 5 C-4.02 4.34 -2.04 3.68 0 3 C0 2.01 0 1.02 0 0 Z " fill="#6B615E" transform="translate(73,43)"/>
<path d="M0 0 C1.125 1.75 1.125 1.75 2 4 C1.5 6.1875 1.5 6.1875 0 8 C-3.125 8.75 -3.125 8.75 -6 9 C-5 7 -5 7 -2 6 C-2 5.01 -2 4.02 -2 3 C-1.34 3 -0.68 3 0 3 C0 2.01 0 1.02 0 0 Z " fill="#6F6E83" transform="translate(94,36)"/>
<path d="M0 0 C1.32 0 2.64 0 4 0 C4 1.65 4 3.3 4 5 C2.35 4.67 0.7 4.34 -1 4 C-0.67 2.68 -0.34 1.36 0 0 Z " fill="#F9C80E" transform="translate(75,36)"/>
<path d="M0 0 C2 2 2 2 2.125 4.625 C2.08375 5.40875 2.0425 6.1925 2 7 C0.68 6.67 -0.64 6.34 -2 6 C-2 4.35 -2 2.7 -2 1 C-1.34 0.67 -0.68 0.34 0 0 Z " fill="#CA2830" transform="translate(68,37)"/>
<path d="M0 0 C1.32 0.33 2.64 0.66 4 1 C3.67 3.31 3.34 5.62 3 8 C1.35 8.33 -0.3 8.66 -2 9 C-2 8.34 -2 7.68 -2 7 C-1.34 6.67 -0.68 6.34 0 6 C0 4.02 0 2.04 0 0 Z " fill="#616573" transform="translate(35,34)"/>
<path d="M0 0 C0.33 0.66 0.66 1.32 1 2 C1.99 2.33 2.98 2.66 4 3 C3.67 4.32 3.34 5.64 3 7 C1.68 6.67 0.36 6.34 -1 6 C-0.67 4.02 -0.34 2.04 0 0 Z " fill="#B1B1B4" transform="translate(29,38)"/>
<path d="M0 0 C1.9375 0.3125 1.9375 0.3125 4 1 C4.33 1.99 4.66 2.98 5 4 C4.34 4 3.68 4 3 4 C3 4.99 3 5.98 3 7 C1 6 1 6 0 5 C-0.04063832 3.33382885 -0.042721 1.66611905 0 0 Z " fill="#DF8533" transform="translate(81,35)"/>
<path d="M0 0 C0.66 0 1.32 0 2 0 C1.01 3.3 0.02 6.6 -1 10 C-1.66 8.68 -2.32 7.36 -3 6 C-1.625 2.75 -1.625 2.75 0 0 Z " fill="#272E46" transform="translate(8,50)"/>
<path d="M0 0 C0 1.65 0 3.3 0 5 C-0.99 5.495 -0.99 5.495 -2 6 C-2 4.68 -2 3.36 -2 2 C-2.66 2 -3.32 2 -4 2 C-4.33 2.99 -4.66 3.98 -5 5 C-5.33 3.68 -5.66 2.36 -6 1 C-3 0 -3 0 0 0 Z " fill="#DBDCE0" transform="translate(68,51)"/>
<path d="M0 0 C2.97 0 5.94 0 9 0 C9 0.99 9 1.98 9 3 C8.01 3.66 7.02 4.32 6 5 C6 4.01 6 3.02 6 2 C4.02 2 2.04 2 0 2 C0 1.34 0 0.68 0 0 Z " fill="#363C5B" transform="translate(89,29)"/>
<path d="M0 0 C0.33 0.66 0.66 1.32 1 2 C3.64 2 6.28 2 9 2 C5.91111478 4.05925681 5.29064073 4.2390374 1.8125 4.125 C-0.0746875 4.063125 -0.0746875 4.063125 -2 4 C-1.34 2.68 -0.68 1.36 0 0 Z " fill="#B04E0B" transform="translate(23,59)"/>
<path d="M0 0 C1.65 0.33 3.3 0.66 5 1 C4.01 2.485 4.01 2.485 3 4 C2.34 3.67 1.68 3.34 1 3 C1.33 3.99 1.66 4.98 2 6 C0.68 5.34 -0.64 4.68 -2 4 C-1.34 3.67 -0.68 3.34 0 3 C0 2.01 0 1.02 0 0 Z " fill="#CDCDCF" transform="translate(39,35)"/>
<path d="M0 0 C2.64 0 5.28 0 8 0 C8 2.31 8 4.62 8 7 C7.13375 5.824375 7.13375 5.824375 6.25 4.625 C4.17102363 2.19952756 2.90959667 1.14305583 0 0 Z " fill="#BB1D2F" transform="translate(81,32)"/>
<path d="M0 0 C0.66 0 1.32 0 2 0 C2 0.66 2 1.32 2 2 C3.65 2 5.3 2 7 2 C6.67 3.32 6.34 4.64 6 6 C5.34 6 4.68 6 4 6 C4 5.01 4 4.02 4 3 C2.35 3 0.7 3 -1 3 C-0.67 2.01 -0.34 1.02 0 0 Z " fill="#9699A4" transform="translate(72,52)"/>
<path d="M0 0 C-0.33 1.32 -0.66 2.64 -1 4 C-2.32 4 -3.64 4 -5 4 C-5 3.34 -5 2.68 -5 2 C-5.66 1.67 -6.32 1.34 -7 1 C-4.53721199 -0.231394 -2.7204945 -0.07159196 0 0 Z " fill="#FDF0A7" transform="translate(60,38)"/>
<path d="M0 0 C0.33 0.99 0.66 1.98 1 3 C2.32 3 3.64 3 5 3 C5 3.66 5 4.32 5 5 C5.66 5.33 6.32 5.66 7 6 C5.88625 5.814375 4.7725 5.62875 3.625 5.4375 C0.17431139 4.68319343 0.17431139 4.68319343 -2 6 C-1.34 4.02 -0.68 2.04 0 0 Z " fill="#916653" transform="translate(56,31)"/>
<path d="M0 0 C-0.33 0.66 -0.66 1.32 -1 2 C-3.5625 2.625 -3.5625 2.625 -6 3 C-6 2.34 -6 1.68 -6 1 C-6.99 0.67 -7.98 0.34 -9 0 C-3.375 -1.125 -3.375 -1.125 0 0 Z " fill="#1B1E44" transform="translate(42,68)"/>
<path d="M0 0 C0 0.66 0 1.32 0 2 C-2.70879335 3.35439668 -5.00933268 3.06501451 -8 3 C-8 2.34 -8 1.68 -8 1 C-5.10765685 0.17361624 -3.11257569 0 0 0 Z " fill="#E47927" transform="translate(45,64)"/>
<path d="M0 0 C1.98 0.495 1.98 0.495 4 1 C4.33 2.32 4.66 3.64 5 5 C2.03 4.505 2.03 4.505 -1 4 C-0.67 2.68 -0.34 1.36 0 0 Z " fill="#E1830E" transform="translate(27,55)"/>
<path d="M0 0 C0.33 0.66 0.66 1.32 1 2 C1.66 2 2.32 2 3 2 C3 3.65 3 5.3 3 7 C3.66 7.33 4.32 7.66 5 8 C3.68 7.67 2.36 7.34 1 7 C0.67 4.69 0.34 2.38 0 0 Z " fill="#0F2255" transform="translate(18,39)"/>
<path d="M0 0 C0.99 0.33 1.98 0.66 3 1 C3.33 3.31 3.66 5.62 4 8 C3.34 8 2.68 8 2 8 C2 6.68 2 5.36 2 4 C1.34 4 0.68 4 0 4 C-0.33 3.01 -0.66 2.02 -1 1 C-0.67 0.67 -0.34 0.34 0 0 Z " fill="#DD7E2F" transform="translate(19,37)"/>
<path d="M0 0 C2.31 0.66 4.62 1.32 7 2 C6.67 2.66 6.34 3.32 6 4 C3.36 4 0.72 4 -2 4 C-1.34 2.68 -0.68 1.36 0 0 Z " fill="#F0BF55" transform="translate(56,35)"/>
<path d="M0 0 C0 1.65 0 3.3 0 5 C-1.65 5.33 -3.3 5.66 -5 6 C-2.84615385 0 -2.84615385 0 0 0 Z " fill="#E6E6E9" transform="translate(35,30)"/>
<path d="M0 0 C1.2065625 0.0309375 1.2065625 0.0309375 2.4375 0.0625 C2.7675 1.0525 3.0975 2.0425 3.4375 3.0625 C1.4575 3.3925 -0.5225 3.7225 -2.5625 4.0625 C-2.8925 3.0725 -3.2225 2.0825 -3.5625 1.0625 C-2.5625 0.0625 -2.5625 0.0625 0 0 Z " fill="#702431" transform="translate(78.5625,44.9375)"/>
<path d="M0 0 C0.33 0 0.66 0 1 0 C1 2.31 1 4.62 1 7 C0.01 7 -0.98 7 -2 7 C-1.125 1.125 -1.125 1.125 0 0 Z " fill="#8A3D4C" transform="translate(17,39)"/>
<path d="M0 0 C1.5 1.3125 1.5 1.3125 3 3 C3 3.99 3 4.98 3 6 C1.68 6 0.36 6 -1 6 C-0.67 4.02 -0.34 2.04 0 0 Z " fill="#DBDCDE" transform="translate(49,31)"/>
</svg>
